<mxfile host="65bd71144e">
    <diagram id="pLIIukSje5bn8fONhate" name="Page-1">
        <mxGraphModel dx="676" dy="471" grid="1" gridSize="10" guides="1" tooltips="1" connect="1" arrows="1" fold="1" page="1" pageScale="1" pageWidth="827" pageHeight="1169" math="0" shadow="0">
            <root>
                <mxCell id="0"/>
                <mxCell id="1" parent="0"/>
                <mxCell id="2" value="" style="rounded=1;whiteSpace=wrap;html=1;" vertex="1" parent="1">
                    <mxGeometry x="140" y="60" width="570" height="420" as="geometry"/>
                </mxCell>
                <mxCell id="10" value="" style="rounded=1;whiteSpace=wrap;html=1;fillColor=#a20025;fontColor=#ffffff;strokeColor=#6F0000;opacity=50;" vertex="1" parent="1">
                    <mxGeometry x="390" y="90" width="300" height="360" as="geometry"/>
                </mxCell>
                <mxCell id="3" value="UT Injection" style="text;html=1;strokeColor=none;fillColor=none;align=center;verticalAlign=middle;whiteSpace=wrap;rounded=0;" vertex="1" parent="1">
                    <mxGeometry x="370" y="60" width="110" height="30" as="geometry"/>
                </mxCell>
                <mxCell id="7" style="edgeStyle=none;html=1;entryX=0.5;entryY=0;entryDx=0;entryDy=0;endArrow=none;endFill=0;" edge="1" parent="1" source="4" target="5">
                    <mxGeometry relative="1" as="geometry"/>
                </mxCell>
                <mxCell id="22" style="edgeStyle=none;html=1;entryX=0.5;entryY=0;entryDx=0;entryDy=0;fontSize=10;endArrow=none;endFill=0;" edge="1" parent="1" source="4" target="20">
                    <mxGeometry relative="1" as="geometry">
                        <Array as="points">
                            <mxPoint x="570" y="170"/>
                            <mxPoint x="570" y="210"/>
                            <mxPoint x="614" y="210"/>
                        </Array>
                    </mxGeometry>
                </mxCell>
                <mxCell id="4" value="app.py" style="whiteSpace=wrap;html=1;aspect=fixed;" vertex="1" parent="1">
                    <mxGeometry x="440" y="130" width="80" height="80" as="geometry"/>
                </mxCell>
                <mxCell id="8" style="edgeStyle=none;html=1;entryX=0.5;entryY=0;entryDx=0;entryDy=0;endArrow=none;endFill=0;exitX=1;exitY=0.75;exitDx=0;exitDy=0;" edge="1" parent="1" source="5" target="6">
                    <mxGeometry relative="1" as="geometry">
                        <Array as="points">
                            <mxPoint x="540" y="300"/>
                        </Array>
                    </mxGeometry>
                </mxCell>
                <mxCell id="5" value="mqtt.py" style="whiteSpace=wrap;html=1;aspect=fixed;" vertex="1" parent="1">
                    <mxGeometry x="440" y="240" width="80" height="80" as="geometry"/>
                </mxCell>
                <mxCell id="6" value="Terminal" style="rounded=0;whiteSpace=wrap;html=1;" vertex="1" parent="1">
                    <mxGeometry x="467" y="370" width="146" height="60" as="geometry"/>
                </mxCell>
                <mxCell id="14" style="edgeStyle=none;html=1;entryX=0.5;entryY=0;entryDx=0;entryDy=0;fontSize=10;endArrow=none;endFill=0;" edge="1" parent="1" source="9" target="13">
                    <mxGeometry relative="1" as="geometry">
                        <Array as="points">
                            <mxPoint x="320" y="170"/>
                        </Array>
                    </mxGeometry>
                </mxCell>
                <mxCell id="9" value="Vendeur" style="whiteSpace=wrap;html=1;aspect=fixed;" vertex="1" parent="1">
                    <mxGeometry x="160" y="130" width="80" height="80" as="geometry"/>
                </mxCell>
                <mxCell id="12" value="CA" style="text;html=1;strokeColor=none;fillColor=none;align=center;verticalAlign=middle;whiteSpace=wrap;rounded=0;" vertex="1" parent="1">
                    <mxGeometry x="425" y="90" width="110" height="30" as="geometry"/>
                </mxCell>
                <mxCell id="15" style="edgeStyle=none;html=1;entryX=0;entryY=0.5;entryDx=0;entryDy=0;fontSize=10;endArrow=none;endFill=0;" edge="1" parent="1" source="13" target="5">
                    <mxGeometry relative="1" as="geometry">
                        <Array as="points"/>
                    </mxGeometry>
                </mxCell>
                <mxCell id="13" value="&lt;font style=&quot;font-size: 10px;&quot;&gt;FILE MQTT&lt;/font&gt;" style="ellipse;whiteSpace=wrap;html=1;aspect=fixed;opacity=50;" vertex="1" parent="1">
                    <mxGeometry x="280" y="240" width="80" height="80" as="geometry"/>
                </mxCell>
                <mxCell id="17" style="edgeStyle=none;html=1;entryX=1;entryY=0.5;entryDx=0;entryDy=0;fontSize=10;endArrow=none;endFill=0;" edge="1" parent="1" source="16" target="4">
                    <mxGeometry relative="1" as="geometry">
                        <Array as="points">
                            <mxPoint x="614" y="170"/>
                        </Array>
                    </mxGeometry>
                </mxCell>
                <mxCell id="19" style="edgeStyle=none;html=1;fontSize=10;endArrow=none;endFill=0;entryX=0.782;entryY=0.024;entryDx=0;entryDy=0;entryPerimeter=0;" edge="1" parent="1" source="16" target="18">
                    <mxGeometry relative="1" as="geometry">
                        <Array as="points">
                            <mxPoint x="670" y="150"/>
                        </Array>
                    </mxGeometry>
                </mxCell>
                <mxCell id="16" value="Thread" style="rounded=1;whiteSpace=wrap;html=1;fontSize=10;fillColor=#6a00ff;fontColor=#ffffff;strokeColor=#3700CC;" vertex="1" parent="1">
                    <mxGeometry x="580" y="130" width="67" height="30" as="geometry"/>
                </mxCell>
                <mxCell id="26" style="edgeStyle=none;html=1;entryX=0.5;entryY=0;entryDx=0;entryDy=0;fontSize=10;endArrow=none;endFill=0;" edge="1" parent="1" source="18" target="20">
                    <mxGeometry relative="1" as="geometry">
                        <Array as="points">
                            <mxPoint x="614" y="200"/>
                        </Array>
                    </mxGeometry>
                </mxCell>
                <mxCell id="28" style="edgeStyle=none;html=1;entryX=1;entryY=0.5;entryDx=0;entryDy=0;fontSize=10;endArrow=none;endFill=0;" edge="1" parent="1" source="18" target="6">
                    <mxGeometry relative="1" as="geometry">
                        <Array as="points">
                            <mxPoint x="680" y="220"/>
                            <mxPoint x="680" y="400"/>
                        </Array>
                    </mxGeometry>
                </mxCell>
                <mxCell id="18" value="event" style="ellipse;whiteSpace=wrap;html=1;fontSize=10;fillColor=#6a00ff;fontColor=#ffffff;strokeColor=#3700CC;opacity=50;" vertex="1" parent="1">
                    <mxGeometry x="620" y="180" width="63" height="30" as="geometry"/>
                </mxCell>
                <mxCell id="23" style="edgeStyle=none;html=1;entryX=1;entryY=0.5;entryDx=0;entryDy=0;fontSize=10;endArrow=none;endFill=0;" edge="1" parent="1" source="20" target="5">
                    <mxGeometry relative="1" as="geometry">
                        <Array as="points">
                            <mxPoint x="614" y="280"/>
                        </Array>
                    </mxGeometry>
                </mxCell>
                <mxCell id="25" style="edgeStyle=none;html=1;fontSize=10;endArrow=none;endFill=0;" edge="1" parent="1" source="20" target="24">
                    <mxGeometry relative="1" as="geometry"/>
                </mxCell>
                <mxCell id="20" value="mqtt_config(app, event)" style="ellipse;whiteSpace=wrap;html=1;fontSize=10;fillColor=#008a00;fontColor=#ffffff;strokeColor=#005700;opacity=50;" vertex="1" parent="1">
                    <mxGeometry x="550" y="230" width="127" height="30" as="geometry"/>
                </mxCell>
                <mxCell id="27" style="edgeStyle=none;html=1;entryX=1;entryY=0.5;entryDx=0;entryDy=0;fontSize=10;endArrow=none;endFill=0;exitX=0.774;exitY=0.971;exitDx=0;exitDy=0;exitPerimeter=0;" edge="1" parent="1" source="24" target="6">
                    <mxGeometry relative="1" as="geometry">
                        <Array as="points">
                            <mxPoint x="650" y="360"/>
                            <mxPoint x="650" y="400"/>
                        </Array>
                    </mxGeometry>
                </mxCell>
                <mxCell id="24" value="event.set()" style="ellipse;whiteSpace=wrap;html=1;fontSize=10;fillColor=#008a00;fontColor=#ffffff;strokeColor=#005700;opacity=50;" vertex="1" parent="1">
                    <mxGeometry x="550" y="290" width="127" height="30" as="geometry"/>
                </mxCell>
                <mxCell id="29" value="5" style="ellipse;whiteSpace=wrap;html=1;aspect=fixed;fontSize=10;opacity=50;fillColor=#fa6800;fontColor=#000000;strokeColor=#C73500;" vertex="1" parent="1">
                    <mxGeometry x="360" y="280" width="20" height="20" as="geometry"/>
                </mxCell>
                <mxCell id="30" value="4" style="ellipse;whiteSpace=wrap;html=1;aspect=fixed;fontSize=10;opacity=50;fillColor=#fa6800;fontColor=#000000;strokeColor=#C73500;" vertex="1" parent="1">
                    <mxGeometry x="300" y="170" width="20" height="20" as="geometry"/>
                </mxCell>
                <mxCell id="31" value="3" style="ellipse;whiteSpace=wrap;html=1;aspect=fixed;fontSize=10;opacity=50;fillColor=#fa6800;fontColor=#000000;strokeColor=#C73500;" vertex="1" parent="1">
                    <mxGeometry x="593" y="210" width="20" height="20" as="geometry"/>
                </mxCell>
                <mxCell id="32" value="2" style="ellipse;whiteSpace=wrap;html=1;aspect=fixed;fontSize=10;opacity=50;fillColor=#fa6800;fontColor=#000000;strokeColor=#C73500;" vertex="1" parent="1">
                    <mxGeometry x="647" y="160" width="20" height="20" as="geometry"/>
                </mxCell>
                <mxCell id="33" value="1" style="ellipse;whiteSpace=wrap;html=1;aspect=fixed;fontSize=10;opacity=50;fillColor=#fa6800;fontColor=#000000;strokeColor=#C73500;" vertex="1" parent="1">
                    <mxGeometry x="560" y="135" width="20" height="20" as="geometry"/>
                </mxCell>
                <mxCell id="34" value="6" style="ellipse;whiteSpace=wrap;html=1;aspect=fixed;fontSize=10;opacity=50;fillColor=#fa6800;fontColor=#000000;strokeColor=#C73500;" vertex="1" parent="1">
                    <mxGeometry x="520" y="260" width="20" height="20" as="geometry"/>
                </mxCell>
                <mxCell id="35" value="7" style="ellipse;whiteSpace=wrap;html=1;aspect=fixed;fontSize=10;opacity=50;fillColor=#fa6800;fontColor=#000000;strokeColor=#C73500;" vertex="1" parent="1">
                    <mxGeometry x="613" y="270" width="20" height="20" as="geometry"/>
                </mxCell>
                <mxCell id="36" value="8" style="ellipse;whiteSpace=wrap;html=1;aspect=fixed;fontSize=10;opacity=50;fillColor=#fa6800;fontColor=#000000;strokeColor=#C73500;" vertex="1" parent="1">
                    <mxGeometry x="641.5" y="400" width="20" height="20" as="geometry"/>
                </mxCell>
                <mxCell id="37" value="9" style="ellipse;whiteSpace=wrap;html=1;aspect=fixed;fontSize=10;opacity=50;fillColor=#fa6800;fontColor=#000000;strokeColor=#C73500;" vertex="1" parent="1">
                    <mxGeometry x="530" y="410" width="20" height="20" as="geometry"/>
                </mxCell>
            </root>
        </mxGraphModel>
    </diagram>
</mxfile>